<svg width="89" height="30" viewBox="0 0 89 30" fill="none" xmlns="http://www.w3.org/2000/svg">
<g clip-path="url(#clip0)">
<path d="M33.7656 2.26367C33.7656 1.84733 33.8891 1.44034 34.1205 1.09421C34.3518 0.748069 34.6807 0.478333 35.0654 0.319127C35.4501 0.15992 35.8733 0.118397 36.2816 0.199811C36.6899 0.281224 37.0649 0.481916 37.3591 0.776495C37.6533 1.07107 37.8536 1.4463 37.9345 1.8547C38.0154 2.2631 37.9733 2.68633 37.8137 3.07083C37.654 3.45532 37.3838 3.78382 37.0374 4.01475C36.691 4.24568 36.2838 4.36867 35.8675 4.36815C35.5913 4.36815 35.3177 4.3137 35.0625 4.20791C34.8074 4.10211 34.5755 3.94706 34.3803 3.7516C34.1851 3.55615 34.0303 3.32413 33.9249 3.06882C33.8194 2.81351 33.7653 2.53991 33.7656 2.26367ZM42.9164 4.36815C43.3326 4.36815 43.7395 4.24473 44.0855 4.01348C44.4316 3.78224 44.7014 3.45356 44.8606 3.06902C45.0199 2.68447 45.0616 2.26133 44.9804 1.8531C44.8992 1.44487 44.6988 1.06989 44.4045 0.77557C44.1101 0.481253 43.7352 0.28082 43.3269 0.199618C42.9187 0.118416 42.4956 0.160092 42.111 0.319375C41.7265 0.478659 41.3978 0.748396 41.1665 1.09448C40.9353 1.44056 40.8119 1.84744 40.8119 2.26367C40.8119 2.82181 41.0336 3.35709 41.4283 3.75176C41.8229 4.14643 42.3582 4.36815 42.9164 4.36815Z" fill="#E42313"/>
<path d="M86.4354 5.82312C86.4354 4.73828 87.0613 4.32104 88.2609 4.32104H88.9493V0.0573033C84.9542 -0.440784 81.7466 2.34694 81.7466 6.3838V29.5514H86.245V10.2538H88.8528V5.82052L86.4354 5.82312Z" fill="#000319"/>
<path d="M76.2282 5.82312C76.2282 4.73828 76.8541 4.32104 78.0536 4.32104H78.7551V0.0573033C74.7496 -0.440784 71.542 2.34694 71.542 6.3838V29.5514H76.0404V10.2538H78.6482V5.82052L76.2282 5.82312Z" fill="#000319"/>
<path d="M54.2422 17.785V29.5201H58.8554V18.3066C58.8554 13.2892 62.0968 9.77651 68.4442 9.77651V5.16333C60.5139 5.16333 54.2422 9.31493 54.2422 17.785Z" fill="#000319"/>
<path d="M39.4376 25.6032C37.9269 25.6006 36.4508 25.1502 35.1959 24.3089C33.941 23.4677 32.9637 22.2733 32.3875 20.8767C31.8113 19.4802 31.662 17.9441 31.9585 16.4627C32.255 14.9814 32.984 13.6211 34.0533 12.5539C35.1227 11.4868 36.4844 10.7605 37.9664 10.4671C39.4484 10.1736 40.9841 10.326 42.3795 10.9051C43.7749 11.4842 44.9673 12.464 45.806 13.7206C46.6447 14.9772 47.092 16.4542 47.0915 17.9649C47.0905 18.969 46.8917 19.9631 46.5065 20.8904C46.1213 21.8176 45.5572 22.6599 44.8465 23.3692C44.1358 24.0785 43.2923 24.6408 42.3642 25.0241C41.4362 25.4074 40.4417 25.6042 39.4376 25.6032ZM51.3735 17.978C51.3704 15.6054 50.6638 13.2871 49.3431 11.3161C48.0224 9.34512 46.1469 7.81003 43.9538 6.90496C41.7607 5.99988 39.3484 5.76547 37.0221 6.23137C34.6957 6.69726 32.5597 7.84254 30.8843 9.52238C29.2088 11.2022 28.0691 13.3411 27.6093 15.6687C27.1495 17.9963 27.3902 20.4079 28.301 22.5987C29.2118 24.7895 30.7517 26.6609 32.7262 27.9765C34.7006 29.292 37.0208 29.9925 39.3933 29.9895C40.9686 29.9874 42.5281 29.6751 43.9827 29.0703C45.4373 28.4656 46.7586 27.5803 47.8711 26.4649C48.9835 25.3495 49.8654 24.026 50.4663 22.5698C51.0673 21.1136 51.3755 19.5533 51.3735 17.978Z" fill="#E42313"/>
<path d="M20.1791 0.15918V7.74524C17.9854 5.89407 15.2078 4.87801 12.3374 4.87667C5.5233 4.88449 0 10.5069 0 17.441C0 24.3751 5.5233 29.9897 12.3374 29.9897C17.4435 29.9897 21.7516 26.9464 23.5275 22.1663C24.4402 19.7098 24.6775 17.188 24.6775 14.017V0.15918H20.1791ZM12.2696 25.5121C7.90682 25.5121 4.36805 21.8873 4.36805 17.428C4.36805 12.9686 7.90682 9.33077 12.2696 9.33077C16.6325 9.33077 20.1739 12.9556 20.1739 17.428C20.1739 21.9003 16.6351 25.5121 12.2696 25.5121Z" fill="#000319"/>
</g>
<defs>
<clipPath id="clip0">
<rect width="88.9464" height="30" fill="white"/>
</clipPath>
</defs>
</svg>
