<svg width="14" height="14" viewBox="0 0 14 14" fill="none" xmlns="http://www.w3.org/2000/svg">
<path d="M2.82812 4.92188C2.82812 2.63326 4.72416 0.75 7.07813 0.75C9.43209 0.75 11.3281 2.63326 11.3281 4.92188C11.3281 5.67423 11.122 6.41132 10.7322 7.05368C10.7321 7.05371 10.7321 7.05374 10.7321 7.05377C10.732 7.05394 10.7319 7.05411 10.7318 7.05428L7.14256 12.9534L3.45934 7.11068C3.45926 7.11056 3.45919 7.11045 3.45911 7.11033C3.04615 6.45366 2.82812 5.69737 2.82812 4.92188ZM7.42773 13.4058C7.42782 13.4059 7.4279 13.406 7.42798 13.4062L7.42797 13.4061L7.42773 13.4058Z" stroke="black" stroke-width="1.5"/>
</svg>
